# xmcd CD database file
#
# Track frame offsets:
#	150
#	19757
#	36964
#	52257
#	67151
#	83461
#	102320
#	118523
#	132486
#	150231
#	167045
#	183521
#
# Disc length: 2645 seconds
#
# Revision: 0
# Processed by: cddbd v1.5.2PL0 Copyright (c) Steve Scherf et al.
# Submitted via: CDex 1.51
#
DISCID=9e0a530c
DTITLE=Chris Nole and Pete Huttlinger - Colors In Time (Volume 2)
DYEAR=1999
DGENRE=New Age
TTITLE0=Rocky Mountain High
TTITLE1=Leaving On A Jet Plane
TTITLE2=Darcy Farrow
TTITLE3=Thank God I'm A Country Boy
TTITLE4=Blue Mount View
TTITLE5=Back Home Again
TTITLE6=Perhaps Love
TTITLE7=Take Me Home, Country Roads
TTITLE8=McGuire's Landing
TTITLE9=Annie's Song
TTITLE10=Spirit
TTITLE11=This Old Guitar
EXTD=YEAR: 1999
EXTT0=
EXTT1=
EXTT2=
EXTT3=
EXTT4=
EXTT5=
EXTT6=
EXTT7=
EXTT8=
EXTT9=
EXTT10=
EXTT11=
PLAYORDER=
